<svg width="33" height="33" viewBox="0 0 33 33" fill="none" xmlns="http://www.w3.org/2000/svg">
<path fill-rule="evenodd" clip-rule="evenodd" d="M20.3725 22.3179C17.9015 24.2923 14.7682 25.2455 11.6163 24.9818C8.46437 24.7182 5.53304 23.2577 3.42434 20.9002C1.31564 18.5428 0.189645 15.4674 0.27762 12.3057C0.365594 9.144 1.66086 6.13599 3.89739 3.89946C6.13391 1.66293 9.14193 0.367669 12.3036 0.279695C15.4653 0.19172 18.5407 1.31771 20.8982 3.42641C23.2556 5.53511 24.7161 8.46645 24.9798 11.6184C25.2434 14.7703 24.2902 17.9035 22.3158 20.3746L31.7685 29.8254C31.9036 29.9513 32.0119 30.1031 32.0871 30.2718C32.1622 30.4404 32.2027 30.6225 32.2059 30.8071C32.2092 30.9917 32.1752 31.1751 32.1061 31.3463C32.0369 31.5175 31.934 31.6731 31.8034 31.8036C31.6728 31.9342 31.5173 32.0371 31.3461 32.1063C31.1749 32.1754 30.9915 32.2094 30.8069 32.2062C30.6223 32.2029 30.4402 32.1625 30.2715 32.0873C30.1028 32.0122 29.951 31.9038 29.8252 31.7687L20.3725 22.3179ZM5.8415 19.4542C4.49591 18.1085 3.57945 16.3941 3.20794 14.5277C2.83643 12.6612 3.02655 10.7265 3.75427 8.96812C4.48199 7.20971 5.71465 5.70648 7.29646 4.64843C8.87827 3.59037 10.7382 3.02497 12.6413 3.02369C14.5443 3.02241 16.405 3.5853 17.9883 4.64123C19.5715 5.69716 20.8062 7.19872 21.5363 8.95616C22.2664 10.7136 22.4591 12.648 22.0901 14.5149C21.7211 16.3819 20.8069 18.0975 19.4632 19.4451L19.454 19.4542L19.4448 19.4616C17.6392 21.263 15.1923 22.2741 12.6416 22.2728C10.091 22.2714 7.64522 21.2577 5.8415 19.4542Z" fill="#811F00"/>
</svg>
